<svg xmlns="http://www.w3.org/2000/svg" width="553" height="333" viewBox="0 0 553 333"><defs><style>.a{fill:#e6e6e6;}.b{fill:#fff;}.c{fill:#3f3d56;}.d{fill:#2699fb;}</style></defs><g transform="translate(0)"><path class="a" d="M787.269,406.134a8.407,8.407,0,0,1-8.366,8.454h-368a8.4,8.4,0,0,1-8.361-8.454V154.728a8.4,8.4,0,0,1,8.361-8.453h368a8.4,8.4,0,0,1,8.366,8.453h0Z" transform="translate(-234.269 -146.275)"/><path class="b" d="M786.719,405.736a8.175,8.175,0,0,1-8.174,8.172H419.094a8.172,8.172,0,0,1-8.174-8.172V162.679a8.172,8.172,0,0,1,8.174-8.174h359.47a8.175,8.175,0,0,1,8.155,8.174Z" transform="translate(-238.056 -149.993)"/><path class="a" d="M346.431,27.48H684.188a4.85,4.85,0,0,1,4.851,4.852V259.985a4.85,4.85,0,0,1-4.851,4.851H346.431a4.851,4.851,0,0,1-4.851-4.851V32.332A4.852,4.852,0,0,1,346.431,27.48Z" transform="translate(-154.354 -12.416)"/><path class="b" d="M354.23,37.44H683.073a4.85,4.85,0,0,1,4.85,4.851V257.8a4.85,4.85,0,0,1-4.85,4.851H354.23a4.853,4.853,0,0,1-4.851-4.851V42.291A4.853,4.853,0,0,1,354.23,37.44Z" transform="translate(-157.881 -16.916)"/><path class="c" d="M850.7,395.651a9.26,9.26,0,0,1-3.761-.8,4.157,4.157,0,0,1-.775-.446l-23.9-16.824h0a9.238,9.238,0,0,1-3.928-7.561V347.076a9.254,9.254,0,0,1,3.918-7.558l23.909-16.826a4.464,4.464,0,0,1,.775-.446,9.244,9.244,0,0,1,13,8.453v55.7A9.244,9.244,0,0,1,850.7,395.651Z" transform="translate(-422.161 -225.419)"/><path class="c" d="M704.531,396.438H637.875c-13.594-.01-24.616-8.8-24.631-19.652V332.862c.015-10.85,11.037-19.64,24.631-19.65h66.832c13.5.01,24.444,8.739,24.459,19.512v44.062C729.152,387.638,718.135,396.428,704.531,396.438Z" transform="translate(-329.482 -221.699)"/><ellipse class="a" cx="19.824" cy="19.827" rx="19.824" ry="19.827" transform="translate(473.961 192.222)"/><path class="b" d="M1001.666,524.875l-15.8-9.125a.413.413,0,0,0-.619.355v18.25a.417.417,0,0,0,.206.359.469.469,0,0,0,.413,0l15.8-9.125a.424.424,0,0,0,.206-.36.415.415,0,0,0-.206-.354l-15.8-9.125a.413.413,0,0,0-.619.355v18.25a.417.417,0,0,0,.206.359.469.469,0,0,0,.413,0l15.8-9.125a.424.424,0,0,0,.206-.36A.415.415,0,0,0,1001.666,524.875Z" transform="translate(-497.586 -313.181)"/><path class="a" d="M632.271,461.136a8.409,8.409,0,0,1-8.363,8.453h-368a8.409,8.409,0,0,1-8.366-8.453V209.73a8.411,8.411,0,0,1,8.363-8.455H623.908a8.411,8.411,0,0,1,8.363,8.455h0Z" transform="translate(-164.227 -171.125)"/><path class="b" d="M631.719,460.737a8.173,8.173,0,0,1-8.174,8.172H264.092a8.171,8.171,0,0,1-8.172-8.172V217.677a8.171,8.171,0,0,1,8.172-8.172H623.559a8.171,8.171,0,0,1,8.159,8.172Z" transform="translate(-168.013 -174.843)"/><path class="a" d="M191.431,82.48H529.188a4.852,4.852,0,0,1,4.853,4.851V314.985a4.852,4.852,0,0,1-4.853,4.851H191.431a4.85,4.85,0,0,1-4.851-4.851V87.331A4.85,4.85,0,0,1,191.431,82.48Z" transform="translate(-84.313 -37.265)"/><path class="b" d="M199.23,92.44H528.073a4.852,4.852,0,0,1,4.851,4.852V312.8a4.852,4.852,0,0,1-4.851,4.852H199.23a4.852,4.852,0,0,1-4.851-4.852V97.291A4.852,4.852,0,0,1,199.23,92.44Z" transform="translate(-87.838 -41.765)"/><path class="c" d="M695.7,450.65a9.222,9.222,0,0,1-3.761-.8,4.759,4.759,0,0,1-.786-.443l-23.894-16.826h0a9.23,9.23,0,0,1-3.923-7.558V402.073a9.227,9.227,0,0,1,3.923-7.553l23.894-16.826a5.165,5.165,0,0,1,.786-.448,9.248,9.248,0,0,1,13,8.45V441.4A9.247,9.247,0,0,1,695.7,450.65Z" transform="translate(-352.117 -250.267)"/><path class="c" d="M549.531,451.438H482.875c-13.6-.01-24.616-8.8-24.631-19.65V387.862c.015-10.85,11.032-19.64,24.631-19.65H549.7c13.506.01,24.444,8.738,24.463,19.512v44.064C574.152,442.638,563.13,451.428,549.531,451.438Z" transform="translate(-259.441 -246.547)"/><ellipse class="a" cx="19.824" cy="19.827" rx="19.824" ry="19.827" transform="translate(389.003 222.372)"/><path class="b" d="M846.669,579.87l-15.8-9.12a.411.411,0,0,0-.413,0,.4.4,0,0,0-.206.354v18.25a.413.413,0,0,0,.619.355l15.8-9.125a.412.412,0,0,0,0-.714l-15.8-9.12a.411.411,0,0,0-.413,0,.4.4,0,0,0-.206.354v18.25a.413.413,0,0,0,.619.355l15.8-9.125a.412.412,0,0,0,0-.714Z" transform="translate(-427.546 -338.033)"/><path class="a" d="M480.273,524.136a8.4,8.4,0,0,1-8.365,8.45h-368a8.4,8.4,0,0,1-8.365-8.45V272.725a8.4,8.4,0,0,1,8.365-8.45h368a8.407,8.407,0,0,1,8.365,8.45h0Z" transform="translate(-95.54 -199.586)"/><path class="b" d="M479.719,523.734a8.173,8.173,0,0,1-8.173,8.174H112.093a8.173,8.173,0,0,1-8.173-8.174V280.679a8.173,8.173,0,0,1,8.173-8.174h359.47a8.172,8.172,0,0,1,8.156,8.174Z" transform="translate(-99.326 -203.308)"/><path class="a" d="M39.431,145.48H377.19a4.852,4.852,0,0,1,4.851,4.851V377.985a4.85,4.85,0,0,1-4.851,4.851H39.431a4.85,4.85,0,0,1-4.851-4.851V150.331A4.852,4.852,0,0,1,39.431,145.48Z" transform="translate(-15.626 -65.729)"/><path class="b" d="M47.231,155.44H376.072a4.852,4.852,0,0,1,4.851,4.852V375.8a4.851,4.851,0,0,1-4.851,4.851H47.231A4.851,4.851,0,0,1,42.38,375.8V160.292A4.852,4.852,0,0,1,47.231,155.44Z" transform="translate(-19.151 -70.229)"/><path class="d" d="M543.7,513.651a9.123,9.123,0,0,1-3.756-.8,4.231,4.231,0,0,1-.785-.443l-23.9-16.827h0a9.256,9.256,0,0,1-3.923-7.558V465.073a9.243,9.243,0,0,1,3.923-7.558l23.9-16.827a4.231,4.231,0,0,1,.785-.443,9.244,9.244,0,0,1,13,8.45v55.7a9.245,9.245,0,0,1-9.245,9.249Z" transform="translate(-283.431 -278.732)"/><path class="d" d="M397.533,514.438H330.878c-13.6-.01-24.618-8.8-24.633-19.65V450.862c.015-10.85,11.034-19.64,24.633-19.65h66.83c13.5.01,24.444,8.741,24.461,19.512v44.064C422.152,505.638,411.133,514.428,397.533,514.438Z" transform="translate(-190.753 -275.012)"/><ellipse class="c" cx="19.824" cy="19.827" rx="19.824" ry="19.827" transform="translate(305.69 256.909)"/><path class="b" d="M694.668,642.875l-15.8-9.125a.41.41,0,0,0-.614.355v18.25a.405.405,0,0,0,.206.359.426.426,0,0,0,.408,0l15.8-9.125a.413.413,0,0,0,0-.714l-15.8-9.125a.41.41,0,0,0-.614.36v18.246a.405.405,0,0,0,.206.359.426.426,0,0,0,.408,0l15.8-9.125a.413.413,0,0,0,0-.714Z" transform="translate(-358.86 -366.494)"/></g></svg>